<svg width="144" height="119" viewBox="0 0 144 119" fill="none" xmlns="http://www.w3.org/2000/svg">
<path d="M6.93278 27.0255L2.42463 33.16V47.4743L2.01483 64.6514L3.24422 77.7386L5.19166 84.6678L11.4342 91.4637L21.3657 100.808L32.2099 112.982L37.5581 116.651L44.9172 115.816L65.9152 111.568L87.4805 105.622L108.478 102.224L124.936 96.8438L134.3 94.2953L141.11 87.7826L142.529 76.7391L141.678 58.0502L142.529 36.8128L141.394 28.8841L132.03 22.0882L120.68 13.5931L110.465 6.23091L103.371 2.83276L95.9931 2.5498L85.778 5.94775L68.1852 9.06253L51.7275 13.0268L38.9585 16.4247L28.1757 19.5397L14.3097 23.3446L6.93278 27.0255Z" fill="white"/>
<path fill-rule="evenodd" clip-rule="evenodd" d="M141.003 32.0759C142.553 33.8163 143.488 36.2092 143.52 39.0365L144.003 81.9355C144.082 88.9152 138.626 95.9162 131.828 97.5593L45.5163 118.422C38.7179 120.065 33.1348 115.732 33.0562 108.753L32.5732 65.8537C32.4946 58.8738 37.9502 51.873 44.7484 50.2297L92.163 38.769L106.41 35.3254L131.06 29.3672C135.105 28.3895 138.719 29.527 141.003 32.0759ZM45.8178 57.9723C43.3952 58.6239 41.3998 61.1371 41.3998 63.5369C41.3998 65.9365 43.3952 67.3766 45.8178 66.7251L47.2905 66.329V69.2466L45.8178 69.6427C43.3952 70.2943 41.3998 72.8075 41.3998 75.2071C41.3998 77.6069 43.3952 79.0468 45.8178 78.3955C48.2404 77.7439 50.2359 75.2307 50.2359 72.8309V71.3721L53.1813 70.5801V72.0389C53.1813 74.4385 55.1767 75.8786 57.5993 75.2271C60.0219 74.5757 62.0174 72.0623 62.0174 69.6627C62.0174 67.2631 60.0219 65.823 57.5993 66.4745L56.1266 66.8704V63.953L57.5993 63.5569C60.0219 62.9053 62.0174 60.3922 62.0174 57.9923C62.0174 55.5927 60.0219 54.1526 57.5993 54.8041C55.1767 55.4557 53.1813 57.9689 53.1813 60.3687V61.8273L50.2359 62.6195V61.1607C50.2359 58.7609 48.2404 57.321 45.8178 57.9723ZM68.3601 94.8586L65.611 94.9618C65.2648 97.1128 64.2365 98.3815 62.5261 98.7681C60.1843 99.2974 59.0134 98.0787 59.0134 95.112C59.0134 92.0639 60.1538 90.2821 62.4344 89.7666C63.2694 89.578 64.0636 89.5814 64.817 89.7768L65.275 91.9287L67.9019 91.0607L67.3521 87.3443C66.5579 87.0565 65.7535 86.903 64.9391 86.884C64.1246 86.8649 63.31 86.9474 62.4955 87.1315C60.4389 87.5963 58.7743 88.6431 57.5017 90.272C56.2291 91.9008 55.5927 93.8227 55.5927 96.0376C55.5927 98.2932 56.2087 99.8711 57.4407 100.771C58.6725 101.671 60.2659 101.9 62.2207 101.459C64.2977 100.989 65.8046 100.085 66.7411 98.745C67.6778 97.4055 68.2175 96.1101 68.3601 94.8586ZM95.2997 93.6767V91.1771L93.2838 91.6329V85.0797C93.2838 83.3931 92.8155 82.2593 91.8787 81.6785C90.9422 81.0977 89.8528 80.9478 88.6106 81.2285C87.4907 81.4817 86.5439 81.9751 85.77 82.7088C84.9962 83.4425 84.4057 84.3228 83.9985 85.3496C83.6727 84.3666 83.1025 83.7182 82.288 83.4045C81.4736 83.0907 80.5573 83.0489 79.5391 83.279C78.521 83.5092 77.6556 83.9385 76.9429 84.5669C76.2302 85.1954 75.6601 85.9338 75.2324 86.7823V84.5268L69.9482 85.7212V88.2511L71.9643 87.7955V96.4518L69.9178 96.9146V99.4139L77.798 97.6326V95.1332L75.2324 95.7132V90.3486C75.2527 89.4092 75.5174 88.5214 76.0265 87.685C76.5355 86.8485 77.3195 86.3106 78.3784 86.0712C79.193 85.8872 79.8293 86.0127 80.2874 86.4476C80.7456 86.8825 80.9747 87.7502 80.9747 89.0507V94.4152L80.2417 94.581V97.0803L86.2893 95.7132V93.2139L84.2428 93.6764V88.3424C84.2632 87.4031 84.5229 86.5112 85.0217 85.667C85.5206 84.8226 86.3096 84.2785 87.3888 84.0347C88.2238 83.8459 88.8703 83.969 89.3285 84.4039C89.7866 84.8388 90.0157 85.7065 90.0157 87.007V92.3715L89.2521 92.5442V95.0435L95.2997 93.6767ZM112.374 89.8172V87.3178L110.358 87.7735V69.3023L104.127 70.7108V73.2101L107.09 72.5404V79.4594C106.682 78.82 106.107 78.3659 105.364 78.097C104.621 77.8281 103.71 77.8156 102.63 78.0595C100.512 78.5382 98.9599 79.6359 97.9724 81.3527C96.9847 83.0695 96.4909 84.9033 96.4909 86.8541C96.4909 88.9877 97.0152 90.5456 98.0639 91.5278C99.1127 92.51 100.533 92.7986 102.325 92.3936C103.567 92.1128 104.57 91.5965 105.333 90.8448C106.097 90.093 106.682 89.2748 107.09 88.3904V91.0116L112.374 89.8172ZM107.09 83.3915V84.4279C107.069 85.4484 106.723 86.4919 106.051 87.5582C105.379 88.6245 104.483 89.2843 103.363 89.5375C102.406 89.7537 101.587 89.563 100.904 88.9654C100.222 88.3677 99.8814 87.3475 99.8814 85.9049C99.8814 84.4823 100.222 83.2825 100.904 82.3053C101.587 81.3282 102.478 80.7154 103.577 80.4669C104.555 80.2459 105.379 80.3948 106.051 80.9136C106.723 81.4322 107.069 82.2582 107.09 83.3915ZM114.268 80.9156V83.6588L121.476 82.0295V79.2862L114.268 80.9156ZM132.93 64.1241C132.278 64.1189 131.637 64.1877 131.006 64.3304C129.397 64.694 128.124 65.4999 127.188 66.7479C126.251 67.996 125.783 69.3617 125.783 70.8451V73.1006L123.98 73.5079V75.9159L125.783 75.5086V84.2868L123.736 84.7494V87.2489L131.616 85.4676V82.9683L129.02 83.5552V74.7768L132.472 73.9966V71.5886L129.02 72.3688V69.656C129.02 68.0711 129.651 67.1359 130.914 66.8505C131.341 66.7538 131.759 66.7306 132.166 66.7808L132.808 68.8609L135.373 67.9762L134.793 64.6021C134.202 64.2886 133.581 64.1292 132.93 64.1241Z" fill="#4E2821"/>
<path d="M45.8148 61.3682C46.6469 61.1446 47.2875 61.6067 47.2875 62.4309V63.8898L45.8148 64.2859C44.9828 64.5095 44.3422 64.0474 44.3422 63.2231C44.3422 62.3989 44.9828 61.592 45.8148 61.3682Z" fill="#4E2821"/>
<path d="M57.5965 58.0391C58.4286 57.8154 59.0692 58.2778 59.0692 59.102C59.0692 59.9262 58.4286 60.7331 57.5965 60.9567L56.1238 61.3528V59.894C56.1238 59.0698 56.7645 58.2629 57.5965 58.0391Z" fill="#4E2821"/>
<path d="M50.2545 65.7192L53.1999 64.9272V67.8449L50.2545 68.6369V65.7192Z" fill="#4E2821"/>
<path d="M45.8148 72.566L47.2875 72.1699V73.6288C47.2875 74.453 46.6469 75.2596 45.8148 75.4835C44.9828 75.7073 44.3422 75.245 44.3422 74.4207C44.3422 73.5965 44.9828 72.7897 45.8148 72.566Z" fill="#4E2821"/>
<path d="M56.1238 69.7892L57.5965 69.3931C58.4286 69.1695 59.0692 69.6316 59.0692 70.4558C59.0692 71.28 58.4286 72.0869 57.5965 72.3108C56.7645 72.5344 56.1238 72.0722 56.1238 71.248V69.7892Z" fill="#4E2821"/>
<path fill-rule="evenodd" clip-rule="evenodd" d="M99.6104 0.0185383C99.2448 0.0367278 98.3883 0.136702 97.8954 0.218692C97.4893 0.286253 93.0224 1.34336 75.0006 5.63681C73.7461 5.93571 59.6928 9.28166 43.771 13.0723C27.8492 16.863 14.5831 20.0345 14.2907 20.1202C12.7079 20.5838 10.9872 21.3652 9.71168 22.1995C6.53899 24.2748 4.06765 27.0728 2.51231 30.3506C1.48062 32.5248 0.944002 34.5273 0.77621 36.8291C0.747535 37.2223 0.789003 41.8013 0.962113 57.3607C1.08466 68.3748 1.20135 77.8248 1.22142 78.3608C1.24148 78.8967 1.2801 79.5087 1.30727 79.7207C1.64728 82.376 2.63246 84.6941 4.23331 86.6054C4.66271 87.1181 6.84319 89.3012 7.70517 90.0814C8.53796 90.8352 10.4527 92.722 12.57 94.8752C14.4689 96.8063 16.069 98.4641 19.8624 102.43C20.4105 103.003 21.1908 103.819 21.5964 104.242C22.002 104.666 22.9047 105.613 23.6025 106.346C24.3002 107.079 25.0488 107.864 25.266 108.09C25.4832 108.316 26.1008 108.962 26.6384 109.525C28.3395 111.309 29.9974 113.023 30.1857 113.192C30.2858 113.282 30.6749 113.647 31.0505 114.005C32.0035 114.911 32.6964 115.535 33.1382 115.885C34.4017 116.886 36.1863 117.806 37.6151 118.193C38.5826 118.456 39.3871 118.553 41.43 118.657L41.8674 118.679V117.245V115.811L41.6015 115.826C41.2139 115.849 40.3676 115.779 39.8342 115.681C38.393 115.416 36.8595 114.705 35.459 113.653C34.2568 112.75 33.0688 111.594 31.9385 110.227C31.6381 109.863 23.3482 101.145 21.9566 99.7292C21.4661 99.2301 19.1287 96.8452 16.7623 94.4294C14.396 92.0135 12.0647 89.6369 11.5816 89.148C8.24833 85.7741 7.72983 85.2139 6.96163 84.1561C5.87584 82.6612 5.47903 81.8732 5.15374 80.5661C4.93789 79.6987 4.86449 79.0571 4.83887 77.8137C4.8282 77.2966 4.71999 68.0051 4.59836 57.166C4.36952 36.7721 4.37137 37.1647 4.49965 36.1522C4.79606 33.8124 5.88305 31.2276 7.4329 29.1772C7.97727 28.4571 8.30805 28.0788 8.99057 27.396C10.4717 25.9142 11.8946 24.9299 13.6943 24.1421C14.2402 23.9031 15.3272 23.5337 15.8684 23.4032C16.2911 23.3012 96.6337 4.16616 97.5696 3.94454C98.6549 3.68752 99.1294 3.62417 100.177 3.59641C100.963 3.57558 101.451 3.60441 102.08 3.70879C102.912 3.84689 103.804 4.1304 104.548 4.49361C105.723 5.0663 108.066 6.37899 109.064 7.02332C109.246 7.14059 113.197 9.99505 117.845 13.3665C129.818 22.0522 131.074 22.9645 134.819 25.7005C137.946 27.9853 138.193 28.1729 138.62 28.5921C139.388 29.3462 139.884 30.0095 140.259 30.7842C140.689 31.672 140.77 32.0334 140.856 33.4511C140.917 34.4363 140.958 37.4368 140.935 39.1353L140.913 40.7509L140.996 40.7514C141.041 40.7518 141.595 40.7971 142.226 40.8522C142.858 40.9073 143.383 40.9442 143.393 40.9343C143.403 40.9243 143.415 39.4134 143.421 37.5768C143.429 34.775 143.422 34.1247 143.376 33.5366C143.16 30.7514 142.801 29.1655 142.107 27.921C141.619 27.0477 140.985 26.2523 140.287 25.6384C140.106 25.4786 139.908 25.3038 139.849 25.2499C139.359 24.806 136.828 22.8895 133.996 20.8179C133.722 20.6178 133.081 20.1487 132.572 19.7755C131.072 18.6765 125.556 14.6674 123.774 13.3814C122.157 12.2143 119.23 10.0948 118.887 9.84208C118.717 9.71729 118.3 9.41541 117.961 9.17129C117.621 8.92717 116.656 8.22715 115.817 7.61568C114.977 7.00424 113.997 6.29075 113.639 6.03014C112.5 5.20197 111.384 4.3538 111.118 4.1146C110.38 3.44993 109.113 2.67513 107.404 1.84183C105.228 0.781097 104.026 0.375046 102.354 0.13489C101.518 0.0147773 100.529 -0.0271749 99.6104 0.0185383Z" fill="#4E2821"/>
</svg>
