<svg version="1.2" xmlns="http://www.w3.org/2000/svg" viewBox="0 0 1549 734" width="1549" height="734">
	<title>TIXT_BIG</title>
	<style>
		.s0 { fill: #4b286d } 
		.s1 { fill: #66cc00 } 
	</style>
	<path class="s0" d="m1543.8 12.8l-672.1 133.6v46.9l2.2-0.7c444-107.6 669.9-172.4 671.4-172.8 3-0.7 3.7-2.9 3.4-4.4-0.4-1.5-2.3-3-4.9-2.6z"/>
	<path class="s1" d="m997.4 0.1c-33.1 1.9-93.7 50.3-126.5 78.9-132.5 114.3-230.4 219.6-302.2 329.4-148.9 79.3-338.7 161.2-527.8 225.2l-4.4 1.5-36.1 97.9 20.8-7.8c119.9-46.1 320.1-131.8 501.7-227q-15.2 40.5-15.2 75.1 0 25.4 8.1 46.9c11.6 28.7 34.3 50.7 65.5 62.9 46.2 18.7 109.8 19 182-2.9 185-55.9 404.2-227.5 452.2-261.7l1.5-1.1c1.9-1.5 1.9-3.7 1.2-5.2-1.2-1.1-3.4-1.9-5.3-0.8l-2.2 1.5c-51 30.5-300 177.9-461.9 221.1-82.2 22.3-145.1 10.4-168.9-23.1-8.2-10.8-11.9-25.3-11.9-42 0-32.4 15.2-74.1 45-119.9 27.2-15.6 52.5-30.5 75.5-45 157.5-88.6 339.5-260.6 347.3-365.9q0-1.1 0-2.2c0-9-4.1-18.3-11.2-25.4-7.1-7-16.7-11.1-27.2-10.4zm-17.8 50.3c10.4-6.7 13.4-2.6 10.4 4.8-5.2 11.9-27.5 84.5-196.9 223.3-44.3 36.1-75.5 56.6-139.2 94.2 104.2-145.9 256.1-277.3 325.7-322.3z"/>
	<path class="s0" d="m869.4 146.8l-707.1 152.2-27.2 73.3 736.6-179 1.1-0.4v-46.5z"/>
</svg>