<svg version="1.1" id="Layer_1" xmlns:x="ns_extend;" xmlns:i="ns_ai;" xmlns:graph="ns_graphs;" xmlns="http://www.w3.org/2000/svg" xmlns:xlink="http://www.w3.org/1999/xlink" x="0px" y="0px" viewBox="0 0 118.1 56" style="enable-background:new 0 0 118.1 56;" xml:space="preserve">
 <style type="text/css">
  .st0{fill-rule:evenodd;clip-rule:evenodd;fill:#4B286D;}
	.st1{fill-rule:evenodd;clip-rule:evenodd;fill:#66CC00;}
 </style>
 <metadata>
  <sfw xmlns="ns_sfw;">
   <slices>
   </slices>
   <sliceSourceBounds bottomLeftOrigin="true" height="56" width="118.1" x="-149.3" y="62.1">
   </sliceSourceBounds>
  </sfw>
 </metadata>
 <g>
  <path class="st0" d="M117.7,1L66.5,11.2v3.6l0.2,0c33.9-8.2,51.1-13.2,51.2-13.2c0.2,0,0.3-0.2,0.2-0.3C118.1,1,117.9,0.9,117.7,1z
		">
  </path>
  <path class="st1" d="M76.1,0c-2.5,0.1-7.1,3.8-9.6,6c-10.1,8.7-17.6,16.7-23,25.2C32,37.3,17.5,43.5,3.1,48.4l-0.3,0.1L0,56
		l1.6-0.6c9.2-3.5,24.4-10,38.3-17.3c-0.8,2.1-1.2,4-1.2,5.7c0,1.3,0.2,2.5,0.7,3.6c0.9,2.2,2.6,3.9,5,4.8c3.5,1.4,8.4,1.4,13.9-0.2
		C72.3,47.7,89,34.6,92.7,32l0.1-0.1c0.1-0.1,0.2-0.3,0.1-0.4c-0.1-0.1-0.2-0.1-0.4-0.1l-0.2,0.1c-3.9,2.3-22.9,13.6-35.2,16.9
		c-6.3,1.7-11.1,0.8-12.9-1.8c-0.6-0.9-0.9-2-0.9-3.2c0-2.5,1.2-5.7,3.4-9.2c2.1-1.2,4-2.3,5.8-3.4c12-6.8,25.9-19.9,26.5-28
		c0-0.1,0-0.1,0-0.2c0-0.7-0.3-1.4-0.8-1.9C77.6,0.2,76.9,0,76.1,0z M74.7,3.8c0.8-0.5,1-0.2,0.8,0.4c-0.4,0.9-2.1,6.5-15,17.1
		c-3.4,2.8-5.8,4.3-10.6,7.2C57.8,17.3,69.4,7.3,74.7,3.8z">
  </path>
  <path class="st0" d="M66.3,11.2L12.4,22.8l-2.1,5.6l56.2-13.7l0.1,0v-3.6L66.3,11.2z">
  </path>
 </g>
</svg>